<svg width="320" height="47" viewBox="0 0 320 47" fill="none" xmlns="http://www.w3.org/2000/svg">
<path d="M0.709571 42V7H8.80957V35.4H26.3596V42H0.709571ZM30.8854 42V7H38.9854V42H30.8854ZM47.2916 42V7H53.9916L74.6416 32.2H71.3916V7H79.3916V42H72.7416L52.0416 16.8H55.2916V42H47.2916ZM103.222 42.6C98.2558 42.6 94.3725 41.2167 91.5725 38.45C88.7725 35.6833 87.3725 31.7333 87.3725 26.6V7H95.4725V26.3C95.4725 29.6333 96.1558 32.0333 97.5225 33.5C98.8891 34.9667 100.806 35.7 103.272 35.7C105.739 35.7 107.656 34.9667 109.022 33.5C110.389 32.0333 111.072 29.6333 111.072 26.3V7H119.072V26.6C119.072 31.7333 117.672 35.6833 114.872 38.45C112.072 41.2167 108.189 42.6 103.222 42.6ZM122.588 42L137.638 21.25V27.15L123.238 7H132.438L142.388 21.05L138.538 21.1L148.338 7H157.138L142.838 26.8V21L157.988 42H148.638L138.338 27.15H142.038L131.888 42H122.588ZM189.852 4.5H212.002V35.2H189.852V4.5ZM205.452 9.7H196.402V29.95H205.452V9.7ZM218.052 0.149999H224.752V46.45H218.052V0.149999ZM223.252 17.6H231.452V23.1H223.252V17.6ZM251.648 2.8H257.448V6.15C257.448 16.2 250.298 25.1 238.298 27.45L235.448 21.95C245.898 20.15 251.648 12.8 251.648 6.15V2.8ZM252.998 2.8H258.748V6.15C258.748 12.95 264.448 20.15 274.948 21.95L272.098 27.45C260.098 25.1 252.998 16.35 252.998 6.15V2.8ZM234.498 35.4H276.398V40.8H234.498V35.4ZM312.694 0.099997H319.294V46.55H312.694V0.099997ZM304.744 16.4H313.444V21.8H304.744V16.4ZM282.544 30.7H286.244C293.894 30.7 299.594 30.6 306.144 29.55L306.744 34.85C300.044 35.9 294.044 36.1 286.244 36.1H282.544V30.7ZM282.544 4H303.994V9.4H289.144V32.4H282.544V4ZM287.644 16.9H302.394V22.1H287.644V16.9Z" fill="url(#paint0_linear_21_299)"/>
<defs>
<linearGradient id="paint0_linear_21_299" x1="15.9309" y1="11" x2="16.958" y2="41.9982" gradientUnits="userSpaceOnUse">
<stop stop-color="#667EEA"/>
<stop offset="1" stop-color="#764BA2"/>
</linearGradient>
</defs>
</svg>
